<svg style="top:4px;position:relative;" viewBox="0 0 18 18" version="1.1" xmlns="http://www.w3.org/2000/svg" xmlns:xlink="http://www.w3.org/1999/xlink"><g id="Page-1" stroke="none" stroke-width="1" fill="none" fill-rule="evenodd"><g id="slack-icon-border" transform="translate(1.000000, 1.000000)" fill-rule="nonzero"><path d="M10.37275,0.989875 C10.129625,0.2414375 9.32575,-0.168125 8.5774375,0.075125 C7.829,0.31825 7.4194375,1.122125 7.6626875,1.8704375 L11.346875,13.20575 C11.599875,13.9049375 12.355125,14.2978125 13.080125,14.0891875 C13.836375,13.8715 14.2973125,13.0683125 14.056,12.325625 L10.37275,0.989875" id="Shape" stroke="#FFFFFF" stroke-width="1.2"/><path d="M4.664125,2.84475 C4.420875,2.096375 3.6170625,1.6868125 2.86875,1.9299375 C2.12025,2.173125 1.710625,2.9769375 1.9539375,3.725375 L5.6381875,15.06075 C5.891125,15.759875 6.6464375,16.1528125 7.3714375,15.944 C8.127625,15.7264375 8.5885625,14.92325 8.34725,14.1804375 L4.664125,2.84475" id="Shape" stroke="#FFFFFF" stroke-width="1.2"/><path d="M15.010125,10.3778125 C15.7585625,10.1346875 16.168,9.3309375 15.924875,8.5824375 C15.68175,7.834125 14.877875,7.4245 14.1295625,7.6676875 L2.79425,11.352 C2.0950625,11.604875 1.7021875,12.360125 1.9108125,13.085125 C2.1285,13.8413125 2.9316875,14.3023125 3.674375,14.061 L15.010125,10.377875" id="Shape" stroke="#FFFFFF" stroke-width="1.2"/><path d="M13.15525,4.669125 C13.903625,4.426 14.3131875,3.6221875 14.0700625,2.8736875 C13.8269375,2.125375 13.0230625,1.7158125 12.274625,1.9589375 L0.93925,5.6433125 C0.240125,5.8960625 -0.1528125,6.651375 0.056,7.376375 C0.2735625,8.1325 1.07675,8.5935 1.8195625,8.3521875 L13.15525,4.6690625" id="Shape" stroke="#FFFFFF" stroke-width="1.2"/><path d="M10.37275,0.989875 C10.129625,0.2414375 9.32575,-0.168125 8.5774375,0.075125 C7.829,0.31825 7.4194375,1.122125 7.6626875,1.8704375 L11.346875,13.20575 C11.599875,13.9049375 12.355125,14.2978125 13.080125,14.0891875 C13.836375,13.8715 14.2973125,13.0683125 14.056,12.325625 L10.37275,0.989875" id="Shape" fill="#DFA22F"/><path d="M4.664125,2.84475 C4.420875,2.096375 3.6170625,1.6868125 2.86875,1.9299375 C2.12025,2.173125 1.710625,2.9769375 1.9539375,3.725375 L5.6381875,15.06075 C5.891125,15.759875 6.6464375,16.1528125 7.3714375,15.944 C8.127625,15.7264375 8.5885625,14.92325 8.34725,14.1804375 L4.664125,2.84475" id="Shape" fill="#3CB187"/><path d="M15.010125,10.3778125 C15.7585625,10.1346875 16.168,9.3309375 15.924875,8.5824375 C15.68175,7.834125 14.877875,7.4245 14.1295625,7.6676875 L2.79425,11.352 C2.0950625,11.604875 1.7021875,12.360125 1.9108125,13.085125 C2.1285,13.8413125 2.9316875,14.3023125 3.674375,14.061 L15.010125,10.377875" id="Shape" fill="#CE1E5B"/><path d="M13.15525,4.669125 C13.903625,4.426 14.3131875,3.6221875 14.0700625,2.8736875 C13.8269375,2.125375 13.0230625,1.7158125 12.274625,1.9589375 L0.93925,5.6433125 C0.240125,5.8960625 -0.1528125,6.651375 0.056,7.376375 C0.2735625,8.1325 1.07675,8.5935 1.8195625,8.3521875 L13.15525,4.6690625" id="Shape" fill="#72C5CD"/><polyline id="Shape" fill="#392538" points="5.15675 13.579375 7.8659375 12.699125 6.9855625 9.989625 4.2761875 10.87025 5.15675 13.5794375"/><path d="M10.8654375,11.7244375 C11.8896875,11.39175 12.8416875,11.082375 13.5746875,10.8441875 L12.6941875,8.1341875 L9.9848125,9.0148125 L10.8654375,11.7244375" id="Shape" fill="#BB242A"/><path d="M3.301375,7.8708125 C4.0391875,7.6310625 4.9904375,7.3219375 6.011,6.9904375 C5.6783125,5.9660625 5.3689375,5.0140625 5.13075,4.2809375 L2.42075,5.1616875 L3.301375,7.8708125" id="Shape" fill="#248C73"/><path d="M9.01,6.016 L11.71975,5.1355 C11.4262669,4.23215442 11.132746,3.32882108 10.8391875,2.4255 L8.129375,3.30625 L9.01,6.016" id="Shape" fill="#62803A"/></g></g></svg>